<svg width="43" height="38" viewBox="0 0 43 38" fill="none" xmlns="http://www.w3.org/2000/svg">
<path d="M1 31.2209L2.5 13.7209C2.5 13.5542 2.6 13.2209 3 13.2209L4.5 12.7209L6 12.2209C6.33333 12.0542 7 11.6209 7 11.2209C7 11.0542 7.1 10.8209 7.5 11.2209L8 14.2209L9.5 22.7209L11.5 12.2209C11.6667 11.5542 12 10.4209 12 11.2209C12 11.3875 12.1 11.7209 12.5 11.7209L16 13.2209C16.1667 13.2209 16.5 13.3209 16.5 13.7209V15.2209L18 30.2209C18 30.5542 17.9 31.2209 17.5 31.2209H16.5C16.3333 31.2209 16 31.0209 16 30.2209L14.5 21.7209C14.3333 21.2209 14 20.6209 14 22.2209V24.2209L15.5 31.2209L11 33.2209H10.5C10.3333 33.2209 10 33.1209 10 32.7209L9.5 29.7209L8.5 33.2209C8.5 33.3875 8.4 33.6209 8 33.2209L4 31.2209C3.66667 31.0542 3.1 30.6209 3.5 30.2209C3.9 29.8209 4.66667 26.0542 5 24.2209L4.5 21.7209L3 30.2209C3 30.5542 2.9 31.2209 2.5 31.2209H1Z" fill="#7F7F80"/>
<path d="M9.5 19.7209L10.5 14.2209C10.5 13.8875 10.4 13.1209 10 12.7209C9.6 12.3209 9.83333 11.8875 10 11.7209C10.1667 11.5542 10.4 11.2209 10 11.2209H9.5H9C8.83333 11.2209 8.6 11.3209 9 11.7209C9.4 12.1209 9.16667 12.5542 9 12.7209C8.83333 12.8875 8.5 13.3209 8.5 13.7209V14.7209L9.5 19.7209Z" fill="#7F7F80"/>
<path d="M16 5.72086C16.1667 5.38753 16.3 4.72086 15.5 4.72086C14.7 4.72086 12.5 5.72086 11.5 6.22086C11.1667 6.38753 10.4 6.72086 10 6.72086H6.5C6 6.55419 5.1 5.92086 5.5 4.72086C5.33333 4.55419 4.8 4.22086 4 4.22086C3.2 4.22086 3 4.55419 3 4.72086C2.83333 5.22086 2.6 6.42086 3 7.22086C3.4 8.02086 4.16667 8.55419 4.5 8.72086C4.83333 8.88753 5.6 9.22086 6 9.22086C6.5 9.22086 8 9.22086 8.5 8.72086L11.5 7.22086C12 6.88753 13.2 6.22086 14 6.22086C14.8 6.22086 15.6667 5.88753 16 5.72086Z" fill="#7F7F80"/>
<path d="M6 5.22086C6.16667 3.55419 6.7 0.420859 7.5 1.22086C7.83333 1.05419 8.7 0.820861 9.5 1.22086C9.83333 1.05419 10.7 0.820855 11.5 1.22086C12.3 1.62086 12.5 4.0542 12.5 5.22086L10 5.72086C8.83333 5.88753 6.4 6.02086 6 5.22086Z" fill="#7F7F80"/>
<path d="M1 31.2209L2.5 13.7209C2.5 13.5542 2.6 13.2209 3 13.2209L4.5 12.7209L6 12.2209C6.33333 12.0542 7 11.6209 7 11.2209C7 11.0542 7.1 10.8209 7.5 11.2209L8 14.2209L9.5 22.7209L11.5 12.2209C11.6667 11.5542 12 10.4209 12 11.2209C12 11.3875 12.1 11.7209 12.5 11.7209L16 13.2209C16.1667 13.2209 16.5 13.3209 16.5 13.7209M1 31.2209C1.33333 31.2209 2.1 31.2209 2.5 31.2209M1 31.2209H2.5M16.5 13.7209C16.5 14.1209 16.5 14.8875 16.5 15.2209M16.5 13.7209V15.2209M16.5 15.2209L18 30.2209C18 30.5542 17.9 31.2209 17.5 31.2209H16.5C16.3333 31.2209 16 31.0209 16 30.2209L14.5 21.7209C14.3333 21.2209 14 20.6209 14 22.2209V24.2209L15.5 31.2209L11 33.2209H10.5C10.3333 33.2209 10 33.1209 10 32.7209L9.5 29.7209L8.5 33.2209C8.5 33.3875 8.4 33.6209 8 33.2209L4 31.2209C3.66667 31.0542 3.1 30.6209 3.5 30.2209C3.9 29.8209 4.66667 26.0542 5 24.2209L4.5 21.7209L3 30.2209C3 30.5542 2.9 31.2209 2.5 31.2209M10 11.2209C10.4 11.2209 10.1667 11.5542 10 11.7209C9.83333 11.8875 9.6 12.3209 10 12.7209C10.4 13.1209 10.5 13.8875 10.5 14.2209L9.5 19.7209L8.5 14.7209M10 11.2209C9.6 11.2209 9.5 11.2209 9.5 11.2209M10 11.2209H9.5M9.5 11.2209H9C8.83333 11.2209 8.6 11.3209 9 11.7209C9.4 12.1209 9.16667 12.5542 9 12.7209C8.83333 12.8875 8.5 13.3209 8.5 13.7209M8.5 13.7209C8.5 14.1209 8.5 14.5542 8.5 14.7209M8.5 13.7209V14.7209M10 6.72086C10.4 6.72086 11.1667 6.38753 11.5 6.22086C12.5 5.72086 14.7 4.72086 15.5 4.72086C16.3 4.72086 16.1667 5.38753 16 5.72086C15.6667 5.88753 14.8 6.22086 14 6.22086C13.2 6.22086 12 6.88753 11.5 7.22086L8.5 8.72086C8 9.22086 6.5 9.22086 6 9.22086C5.6 9.22086 4.83333 8.88753 4.5 8.72086C4.16667 8.55419 3.4 8.02086 3 7.22086C2.6 6.42086 2.83333 5.22086 3 4.72086C3 4.55419 3.2 4.22086 4 4.22086C4.8 4.22086 5.33333 4.55419 5.5 4.72086C5.1 5.92086 6 6.55419 6.5 6.72086M10 6.72086C9.6 6.72086 7.5 6.72086 6.5 6.72086M10 6.72086H6.5M6 5.22086C6.16667 3.55419 6.7 0.420859 7.5 1.22086C7.83333 1.05419 8.7 0.820861 9.5 1.22086C9.83333 1.05419 10.7 0.820855 11.5 1.22086C12.3 1.62086 12.5 4.0542 12.5 5.22086L10 5.72086C8.83333 5.88753 6.4 6.02086 6 5.22086Z" stroke="#7F7F80" stroke-width="0.2"/>
<path d="M23 34.5C23 35.3 24.6667 35.5 25.5 35.5C25.6838 35.5037 25.9099 34.8349 26 34.5C26.5 33 27.7 29.6 28.5 28C29.3 26.4 28.8333 29 28.5 30.5C27.5 35 27 35.5 27.5 36C29.5 37 29 35.5 30.5 35.5C31.7 35.5 33 36.1667 33.5 36.5C35.5 37.5 35.5 36.5 36 36.5C36.5 36.5 35.5 36.5 34.5 31C33.7 26.6 33.8333 25.8333 34 26C35 28.5 37.1 33.7 37.5 34.5C37.9 35.3 39.6667 35.1667 40.5 35C41.5 34.6667 43.3 34 42.5 34C41.7 34 38.5 28.3333 37 25.5C36.6667 24.8333 35.9 23.1 35.5 21.5C35.1 19.9 35.3333 18.5 35.5 18V16.5C35.5 15 35 13 34.5 12.5C34.1 12.1 34 10.6667 34 10C34 9.66667 34.1 8.9 34.5 8.5C34.9 8.1 35 7.33333 35 7C35 6.5 34.9 5.5 34.5 5.5C34.1695 5.5 34.2714 4.36211 34.4108 3.49665C34.2179 4.02067 33.7586 4.37069 33.5 4.5C33.1667 4.66667 32 5.1 30 5.5C28 5.9 28.1667 7 28.5 7.5C29 8.5 29.8 10.7 29 11.5C28.2 12.3 28 14.8333 28 16V20C28 22 27.3333 24.1667 27 25L24 32C23.6667 32.5 23 33.7 23 34.5Z" fill="#7F7F80"/>
<path d="M28 20C28 22 27.3333 24.1667 27 25L24 32C23.6667 32.5 23 33.7 23 34.5C23 35.3 24.6667 35.5 25.5 35.5C25.6838 35.5037 25.9099 34.8349 26 34.5C26.5 33 27.7 29.6 28.5 28C29.3 26.4 28.8333 29 28.5 30.5C27.5 35 27 35.5 27.5 36C29.5 37 29 35.5 30.5 35.5C31.7 35.5 33 36.1667 33.5 36.5C35.5 37.5 35.5 36.5 36 36.5C36.5 36.5 35.5 36.5 34.5 31C33.7 26.6 33.8333 25.8333 34 26C35 28.5 37.1 33.7 37.5 34.5C37.9 35.3 39.6667 35.1667 40.5 35C41.5 34.6667 43.3 34 42.5 34C41.7 34 38.5 28.3333 37 25.5C36.6667 24.8333 35.9 23.1 35.5 21.5C35.1 19.9 35.3333 18.5 35.5 18V16.5C35.5 15 35 13 34.5 12.5C34.1 12.1 34 10.6667 34 10C34 9.66667 34.1 8.9 34.5 8.5C34.9 8.1 35 7.33333 35 7C35 6.5 34.9 5.5 34.5 5.5C34.1695 5.5 34.2714 4.36211 34.4108 3.49665M28 20C28 18 28 16.5 28 16M28 20V16M28 16C28 14.8333 28.2 12.3 29 11.5C29.8 10.7 29 8.5 28.5 7.5C28.1667 7 28 5.9 30 5.5C32 5.1 33.1667 4.66667 33.5 4.5C33.7586 4.37069 34.2179 4.02067 34.4108 3.49665M34.4108 3.49665C34.4401 3.31469 34.471 3.14477 34.5 3C34.5 3.17932 34.4665 3.34525 34.4108 3.49665Z" stroke="#7F7F80" stroke-width="0.2"/>
</svg>
