<svg width="63" height="59" viewBox="0 0 63 59" fill="none" xmlns="http://www.w3.org/2000/svg">
<path d="M1.90052 54.8771L1.98443 36M1.99999 53C1.75536 55.9087 1.69857 57.4632 5 57L42.5 57.5C44.4488 57.4402 45.0825 56.7502 45.5 54.5V39M1.98443 36L1.99999 32.5C2.38942 29.8969 3.62796 29.8527 5.99999 30H18.5M1.98443 36L23.5 50.5L45.5 36M45.5 36V34.25M45.5 36V39M18.5 30V17.5L18 17H14.5M18.5 30H36M14.5 17V11L38.5 11.2526M14.5 17L36 17.2263M36 17.2263V30M36 17.2263L41 17.279M36 30H41M41 17.279V30M41 17.279L58.5 17.4632M41 30H43.5C45.1265 30.3 45.2885 31.068 45.5 32.5V34.25M45.5 34.25H58.5M58.5 34.25V17.4632M58.5 34.25V39M58.5 17.4632L62 17.5V11.5L43.5 11.3053M58.5 57.5V57M45.5 39H58.5M58.5 39V57M58.5 57L44.5 56.8928M43.5 11.3053C46.2513 9.64236 47.758 8.60833 50 5.50001C50.5495 4.32846 50.7237 3.17156 50 2C48.3475 0.283821 45.3317 2.2845 43.5 2.50001C41.2229 4.03763 40.2783 4.92476 38.5 6.5M43.5 11.3053L38.5 11.2526M38.5 6.5C35.901 4.14966 34.6256 3.39176 32.5 2.50001C30.4185 1.21362 29.2875 0.797063 27.5 2C26.6599 2.75017 26.1246 3.23497 26.2806 4.5M38.5 6.5V11.2526M26.5 5.50001C26.3878 5.11779 26.3162 4.78859 26.2806 4.5M26.2806 4.5C26.6646 6.20453 28.1423 7.67474 32.5 11L38.5 11.2526" stroke="#FFD700" stroke-width="2"/>
</svg>
